<svg width="400" height="312" viewBox="0 0 400 312" fill="none" xmlns="http://www.w3.org/2000/svg">
<path d="M133.01 270.21L123.658 279.562L32.2459 188.15L41.5977 178.798L133.01 270.21ZM178.798 270.21L270.21 178.798C282.854 166.154 282.854 145.654 270.21 133.01L178.798 41.5977C166.154 28.9538 145.654 28.9538 133.01 41.5977L41.5978 133.01C28.954 145.654 28.9539 166.154 41.5977 178.798L32.2459 188.15L31.4241 187.307C14.7108 169.725 14.7109 142.083 31.4241 124.5L32.2459 123.658L123.658 32.2458C141.467 14.4371 170.341 14.4371 188.15 32.2458L279.562 123.658L280.383 124.5C297.366 142.366 297.092 170.619 279.562 188.15L188.15 279.562L187.307 280.383C169.725 297.097 142.083 297.097 124.5 280.383L123.658 279.562L133.01 270.21C145.654 282.854 166.154 282.854 178.798 270.21Z" fill="white"/>
<path d="M211.85 32.246C229.659 14.437 258.533 14.437 276.342 32.246L367.754 123.658C385.563 141.467 385.563 170.341 367.754 188.15L276.342 279.562C258.533 297.371 229.659 297.371 211.85 279.562L120.438 188.15C102.629 170.341 102.629 141.467 120.438 123.658L211.85 32.246Z" fill="white"/>
<path d="M221.202 270.21L211.85 279.562L120.438 188.15L129.79 178.798L221.202 270.21ZM266.99 270.21L358.402 178.798C371.046 166.154 371.046 145.654 358.402 133.01L266.99 41.5977C254.346 28.9538 233.846 28.9538 221.202 41.5977L129.79 133.01C117.146 145.654 117.146 166.154 129.79 178.798L120.438 188.15L119.617 187.307C102.903 169.725 102.903 142.083 119.617 124.5L120.438 123.658L211.85 32.2458C229.659 14.4371 258.533 14.4371 276.342 32.2458L367.754 123.658L368.576 124.5C385.559 142.366 385.285 170.619 367.754 188.15L276.342 279.562L275.5 280.383C257.917 297.097 230.275 297.097 212.693 280.383L211.85 279.562L221.202 270.21C233.846 282.854 254.346 282.854 266.99 270.21Z" fill="white"/>
</svg>
