<svg width="3000" height="640" viewBox="0 0 3000 640" fill="none" xmlns="http://www.w3.org/2000/svg">
<rect width="3000" height="640" fill="black"/>
<rect x="844.5" y="182.728" width="193.425" height="193.425" rx="33.3259" transform="rotate(45 844.5 182.728)" stroke="white" stroke-width="12.3429"/>
<rect x="926.808" y="182.728" width="193.425" height="193.425" rx="33.3259" transform="rotate(45 926.808 182.728)" fill="white" stroke="white" stroke-width="12.3429"/>
<g filter="url(#filter0_d_323_748)">
<path d="M2143.25 374.865V263.957H2248.29V277.821H2159.78V310.169H2233.72V324.032H2159.78V361.002H2247.58V374.865H2143.25Z" fill="white"/>
<path d="M2046.56 376.643C2037.32 376.643 2028.73 375.517 2020.79 373.266C2012.97 370.896 2006.16 367.341 2000.35 362.602C1994.54 357.862 1990.04 351.937 1986.84 344.828C1983.64 337.718 1982.04 329.483 1982.04 320.122C1982.04 311.591 1983.29 304.126 1985.77 297.727C1988.26 291.329 1991.64 285.937 1995.91 281.553C2000.17 277.169 2004.97 273.614 2010.3 270.889C2015.75 268.164 2021.5 266.208 2027.54 265.023C2033.7 263.72 2039.75 263.068 2045.67 263.068C2057.76 263.068 2068.07 265.023 2076.6 268.934C2085.25 272.844 2091.77 278.117 2096.15 284.752L2084.24 292.573L2082.82 293.639L2082.11 292.395C2082.35 291.447 2082.23 290.618 2081.75 289.907C2081.28 289.196 2080.39 288.189 2079.09 286.885C2074.58 282.738 2069.49 280.013 2063.8 278.709C2058.23 277.287 2052.13 276.576 2045.49 276.576C2039.21 276.576 2033.23 277.465 2027.54 279.243C2021.97 280.901 2017 283.508 2012.61 287.063C2008.35 290.499 2004.97 294.883 2002.48 300.216C2000.11 305.548 1998.93 311.887 1998.93 319.234C1998.93 326.225 2000.11 332.445 2002.48 337.896C2004.85 343.347 2008.17 347.909 2012.44 351.582C2016.82 355.255 2021.86 358.099 2027.54 360.113C2033.23 362.009 2039.39 362.957 2046.03 362.957C2050.41 362.957 2054.91 362.483 2059.54 361.535C2064.16 360.469 2068.42 358.928 2072.33 356.914C2076.36 354.9 2079.62 352.53 2082.11 349.804L2093.84 358.691C2088.39 364.734 2081.87 369.237 2074.29 372.199C2066.7 375.162 2057.46 376.643 2046.56 376.643Z" fill="white"/>
<path d="M1912.37 344.828H1844.47L1851.23 332.031H1907.04L1912.37 344.828ZM1879.13 291.329L1834.52 374.866H1816.57L1877.18 262.357H1881.44L1942.05 374.866H1923.39L1879.13 291.329Z" fill="white"/>
<path d="M1668.87 374.865V264.135H1725.57C1736.47 264.135 1745.47 265.497 1752.58 268.223C1759.81 270.83 1765.2 274.562 1768.76 279.42C1772.43 284.16 1774.27 289.729 1774.27 296.128C1774.27 301.104 1772.84 305.725 1770 309.991C1767.16 314.257 1763.19 317.812 1758.09 320.655C1753.12 323.499 1747.25 325.336 1740.5 326.165L1778.71 374.865H1758.45L1721.83 327.409H1685.75V374.865H1668.87ZM1685.75 313.546H1726.81C1737.47 313.546 1745.24 312.006 1750.09 308.925C1754.95 305.844 1757.38 301.578 1757.38 296.128C1757.38 292.691 1756.31 289.67 1754.18 287.063C1752.05 284.338 1748.67 282.205 1744.05 280.664C1739.43 279.124 1733.39 278.354 1725.92 278.354H1685.75V313.546Z" fill="white"/>
<path d="M1552.98 374.865V277.998H1503.57V263.957H1620.88V277.998H1569.51V374.865H1552.98Z" fill="white"/>
<path d="M1352.32 374.865V263.957H1457.36V277.821H1368.85V310.169H1442.79V324.032H1368.85V361.002H1456.65V374.865H1352.32Z" fill="white"/>
<path d="M1194.31 374.865V264.135H1251.01C1261.91 264.135 1270.91 265.497 1278.02 268.223C1285.25 270.83 1290.64 274.562 1294.2 279.42C1297.87 284.16 1299.71 289.729 1299.71 296.128C1299.71 301.104 1298.28 305.725 1295.44 309.991C1292.6 314.257 1288.63 317.812 1283.53 320.655C1278.56 323.499 1272.69 325.336 1265.94 326.165L1304.15 374.865H1283.89L1247.27 327.409H1211.19V374.865H1194.31ZM1211.19 313.546H1252.25C1262.91 313.546 1270.68 312.006 1275.53 308.925C1280.39 305.844 1282.82 301.578 1282.82 296.128C1282.82 292.691 1281.75 289.67 1279.62 287.063C1277.49 284.338 1274.11 282.205 1269.49 280.664C1264.87 279.124 1258.83 278.354 1251.36 278.354H1211.19V313.546Z" fill="white"/>
</g>
<defs>
<filter id="filter0_d_323_748" x="1190.31" y="262.357" width="1061.99" height="122.285" filterUnits="userSpaceOnUse" color-interpolation-filters="sRGB">
<feFlood flood-opacity="0" result="BackgroundImageFix"/>
<feColorMatrix in="SourceAlpha" type="matrix" values="0 0 0 0 0 0 0 0 0 0 0 0 0 0 0 0 0 0 127 0" result="hardAlpha"/>
<feOffset dy="4"/>
<feGaussianBlur stdDeviation="2"/>
<feComposite in2="hardAlpha" operator="out"/>
<feColorMatrix type="matrix" values="0 0 0 0 0 0 0 0 0 0 0 0 0 0 0 0 0 0 0.25 0"/>
<feBlend mode="normal" in2="BackgroundImageFix" result="effect1_dropShadow_323_748"/>
<feBlend mode="normal" in="SourceGraphic" in2="effect1_dropShadow_323_748" result="shape"/>
</filter>
</defs>
</svg>
