<svg width="1706" height="312" viewBox="0 0 1706 312" fill="none" xmlns="http://www.w3.org/2000/svg">
<rect x="155.904" y="9.35182" width="207.256" height="207.256" rx="38.9901" transform="rotate(45 155.904 9.35182)" stroke="white" stroke-width="13.2255"/>
<rect x="244.096" y="9.35182" width="207.256" height="207.256" rx="38.9901" transform="rotate(45 244.096 9.35182)" fill="white" stroke="white" stroke-width="13.2255"/>
<path d="M503.6 222.904V98.3038H568.2C580.467 98.3038 590.667 99.8371 598.8 102.904C607.067 105.97 613.2 110.237 617.2 115.704C621.333 121.037 623.4 127.37 623.4 134.704C623.4 140.437 621.8 145.704 618.6 150.504C615.533 155.304 611.133 159.304 605.4 162.504C599.667 165.704 593.067 167.837 585.6 168.904L628.6 222.904H603L562 170.504H525.2V222.904H503.6ZM525.2 152.904H569.6C580.8 152.904 588.933 151.304 594 148.104C599.2 144.904 601.8 140.504 601.8 134.904C601.8 131.304 600.667 128.104 598.4 125.304C596.133 122.504 592.533 120.304 587.6 118.704C582.8 117.104 576.467 116.304 568.6 116.304H525.2V152.904ZM681.4 222.904V98.1038H801.2V115.504H702.6V149.104H784.8V166.704H702.6V205.504H800.2V222.904H681.4ZM906.6 222.904V115.904H851.8V98.1038H984.8V115.904H927.8V222.904H906.6ZM1037.6 222.904V98.3038H1102.2C1114.47 98.3038 1124.67 99.8371 1132.8 102.904C1141.07 105.97 1147.2 110.237 1151.2 115.704C1155.33 121.037 1157.4 127.37 1157.4 134.704C1157.4 140.437 1155.8 145.704 1152.6 150.504C1149.53 155.304 1145.13 159.304 1139.4 162.504C1133.67 165.704 1127.07 167.837 1119.6 168.904L1162.6 222.904H1137L1096 170.504H1059.2V222.904H1037.6ZM1059.2 152.904H1103.6C1114.8 152.904 1122.93 151.304 1128 148.104C1133.2 144.904 1135.8 140.504 1135.8 134.904C1135.8 131.304 1134.67 128.104 1132.4 125.304C1130.13 122.504 1126.53 120.304 1121.6 118.704C1116.8 117.104 1110.47 116.304 1102.6 116.304H1059.2V152.904ZM1312.6 190.704H1235.6L1243.2 174.704H1306.4L1312.6 190.704ZM1274.8 132.304L1227.2 222.904H1204.2L1271.4 96.5038H1278.6L1345.8 222.904H1322L1274.8 132.304ZM1463 224.904C1452.6 224.904 1442.93 223.637 1434 221.104C1425.07 218.437 1417.33 214.437 1410.8 209.104C1404.27 203.77 1399.2 197.104 1395.6 189.104C1392 181.104 1390.2 171.837 1390.2 161.304C1390.2 151.704 1391.6 143.304 1394.4 136.104C1397.2 128.904 1401 122.837 1405.8 117.904C1410.6 112.837 1416.07 108.837 1422.2 105.904C1428.47 102.837 1435 100.637 1441.8 99.3038C1448.73 97.8371 1455.6 97.1038 1462.4 97.1038C1476 97.1038 1487.67 99.2371 1497.4 103.504C1507.13 107.77 1514.47 113.704 1519.4 121.304L1505.4 131.904L1503.8 133.104L1503 131.704C1503.13 130.637 1502.93 129.704 1502.4 128.904C1502 128.104 1501.07 126.904 1499.6 125.304C1494.67 121.037 1489.07 118.17 1482.8 116.704C1476.53 115.237 1469.67 114.504 1462.2 114.504C1455.53 114.504 1449.13 115.437 1443 117.304C1436.87 119.037 1431.4 121.837 1426.6 125.704C1421.93 129.437 1418.27 134.17 1415.6 139.904C1412.93 145.637 1411.6 152.437 1411.6 160.304C1411.6 167.904 1412.87 174.637 1415.4 180.504C1418.07 186.237 1421.67 191.104 1426.2 195.104C1430.87 199.104 1436.27 202.17 1442.4 204.304C1448.67 206.304 1455.4 207.304 1462.6 207.304C1467.53 207.304 1472.53 206.837 1477.6 205.904C1482.8 204.837 1487.6 203.237 1492 201.104C1496.4 198.837 1500 196.104 1502.8 192.904L1516.8 204.704C1510.53 211.77 1503.07 216.904 1494.4 220.104C1485.87 223.304 1475.4 224.904 1463 224.904ZM1571.4 222.904V98.1038H1691.2V115.504H1592.6V149.104H1674.8V166.704H1592.6V205.504H1690.2V222.904H1571.4Z" fill="white"/>
</svg>
